<svg xmlns="http://www.w3.org/2000/svg" viewBox="0 0 48 48">
  <circle cx="24" cy="24" r="20" fill="#2196F3"/>
  <path d="M24 8c8.837 0 16 7.163 16 16s-7.163 16-16 16S8 32.837 8 24 15.163 8 24 8m0-4C12.954 4 4 12.954 4 24s8.954 20 20 20 20-8.954 20-20S35.046 4 24 4z" fill="#1565C0"/>
  <path d="M24 8c8.837 0 16 7.163 16 16s-7.163 16-16 16S8 32.837 8 24 15.163 8 24 8m0-4C12.954 4 4 12.954 4 24s8.954 20 20 20 20-8.954 20-20S35.046 4 24 4z" fill="#1565C0"/>
  <path d="M36 24c0 6.627-5.373 12-12 12s-12-5.373-12-12 5.373-12 12-12 12 5.373 12 12zm-18.5 0c0 3.59 2.91 6.5 6.5 6.5s6.5-2.91 6.5-6.5-2.91-6.5-6.5-6.5-6.5 2.91-6.5 6.5z" fill="#BBDEFB"/>
  <path d="M38 24c0 7.732-6.268 14-14 14s-14-6.268-14-14 6.268-14 14-14 14 6.268 14 14zm-14-10c-5.514 0-10 4.486-10 10s4.486 10 10 10 10-4.486 10-10-4.486-10-10-10z" fill="#E3F2FD"/>
</svg>
