<svg xmlns="http://www.w3.org/2000/svg" viewBox="0 0 48 48">
  <rect width="48" height="48" fill="#F5F5F5"/>
  <rect width="48" height="3.7" fill="#B22234"/>
  <rect y="7.4" width="48" height="3.7" fill="#B22234"/>
  <rect y="14.8" width="48" height="3.7" fill="#B22234"/>
  <rect y="22.2" width="48" height="3.7" fill="#B22234"/>
  <rect y="29.6" width="48" height="3.7" fill="#B22234"/>
  <rect y="37" width="48" height="3.7" fill="#B22234"/>
  <rect y="44.4" width="48" height="3.7" fill="#B22234"/>
  <rect width="24" height="25.9" fill="#3C3B6E"/>
  <g fill="#F5F5F5">
    <circle cx="4" cy="4.3" r="1.5"/>
    <circle cx="8" cy="4.3" r="1.5"/>
    <circle cx="12" cy="4.3" r="1.5"/>
    <circle cx="16" cy="4.3" r="1.5"/>
    <circle cx="20" cy="4.3" r="1.5"/>
    <circle cx="4" cy="8.6" r="1.5"/>
    <circle cx="8" cy="8.6" r="1.5"/>
    <circle cx="12" cy="8.6" r="1.5"/>
    <circle cx="16" cy="8.6" r="1.5"/>
    <circle cx="20" cy="8.6" r="1.5"/>
    <circle cx="4" cy="12.9" r="1.5"/>
    <circle cx="8" cy="12.9" r="1.5"/>
    <circle cx="12" cy="12.9" r="1.5"/>
    <circle cx="16" cy="12.9" r="1.5"/>
    <circle cx="20" cy="12.9" r="1.5"/>
    <circle cx="4" cy="17.2" r="1.5"/>
    <circle cx="8" cy="17.2" r="1.5"/>
    <circle cx="12" cy="17.2" r="1.5"/>
    <circle cx="16" cy="17.2" r="1.5"/>
    <circle cx="20" cy="17.2" r="1.5"/>
    <circle cx="4" cy="21.5" r="1.5"/>
    <circle cx="8" cy="21.5" r="1.5"/>
    <circle cx="12" cy="21.5" r="1.5"/>
    <circle cx="16" cy="21.5" r="1.5"/>
    <circle cx="20" cy="21.5" r="1.5"/>
  </g>
</svg>
